<svg width="70" height="41" viewBox="0 0 70 41" fill="none" xmlns="http://www.w3.org/2000/svg">
<path d="M58.7612 23.406H65.3041V14.1224L58.7612 23.406ZM65.9811 32.0386C65.7662 32.0386 65.5835 31.9633 65.4332 31.8124C65.2827 31.6614 65.2076 31.478 65.2076 31.2625V27.1229H54.9901C54.7754 27.1229 54.5927 27.0476 54.4422 26.8967C54.2919 26.7458 54.2166 26.5626 54.2166 26.3468V24.1155C54.2166 23.7705 54.3347 23.4473 54.5711 23.1452L64.0794 9.95074C64.1869 9.77822 64.3481 9.64357 64.5629 9.5466C64.7778 9.44943 65.0142 9.40105 65.272 9.40105H68.8176C69.0538 9.40105 69.242 9.47105 69.3816 9.61125C69.5212 9.75145 69.591 9.94003 69.591 10.1772V31.2625C69.591 31.478 69.5212 31.6614 69.3816 31.8124C69.2418 31.9631 69.0538 32.0386 68.8174 32.0386H65.9811ZM41.9783 32.362C39.0129 32.362 36.7193 31.6022 35.0968 30.0822C33.4745 28.5622 32.6096 26.4007 32.5023 23.598C32.4807 23.016 32.47 22.0673 32.47 20.7524C32.47 19.4154 32.4807 18.4453 32.5023 17.8417C32.6096 15.082 33.4799 12.9314 35.1129 11.3898C36.7461 9.84841 39.0345 9.07762 41.9781 9.07762C43.8907 9.07762 45.5558 9.4064 46.974 10.064C48.3923 10.7215 49.4934 11.6216 50.2777 12.7644C51.062 13.907 51.4757 15.1896 51.5187 16.6126V16.6775C51.5187 16.85 51.4489 16.9954 51.3091 17.1139C51.1695 17.2325 51.0136 17.2918 50.8419 17.2918H47.7155C47.4577 17.2918 47.2641 17.2325 47.1353 17.1139C47.0064 16.9954 46.8989 16.7852 46.8128 16.4833C46.4906 15.1468 45.932 14.2035 45.1368 13.6536C44.3418 13.1039 43.289 12.8291 41.9783 12.8291C38.9054 12.8291 37.3047 14.5537 37.1758 18.0033C37.1542 18.5855 37.1435 19.4801 37.1435 20.6875C37.1435 21.8948 37.1542 22.8111 37.1758 23.4363C37.3047 26.886 38.9054 28.6106 41.9783 28.6106C43.2674 28.6106 44.315 28.3358 45.1207 27.7861C45.9266 27.2362 46.4906 26.2929 46.8128 24.9563C46.8989 24.6545 47.0064 24.4443 47.1353 24.3257C47.2641 24.2071 47.4575 24.1478 47.7155 24.1478H50.8419C51.0352 24.1478 51.2018 24.2125 51.3414 24.3418C51.481 24.4713 51.5401 24.6329 51.5187 24.827C51.4757 26.2498 51.062 27.5326 50.2777 28.6754C49.4934 29.818 48.3923 30.7179 46.974 31.3757C45.5558 32.0333 43.8905 32.362 41.9783 32.362ZM11.2617 32.0388C11.047 32.0388 10.8643 31.9633 10.7138 31.8124C10.5635 31.6614 10.4882 31.478 10.4882 31.2625V10.2095C10.4882 9.97235 10.558 9.77822 10.6978 9.62731C10.8374 9.4766 11.0254 9.40105 11.2617 9.40105H13.776C14.1843 9.40105 14.4958 9.58428 14.7108 9.95074L23.929 24.3097V10.2093C23.929 9.97215 23.9988 9.77802 24.1384 9.62711C24.278 9.4764 24.4662 9.40085 24.7025 9.40085H27.4744C27.7107 9.40085 27.9041 9.47621 28.0544 9.62711C28.2049 9.77802 28.2801 9.97215 28.2801 10.2093V31.2299C28.2801 31.4671 28.2049 31.6612 28.0544 31.8122C27.9041 31.9629 27.7213 32.0384 27.5065 32.0384H24.9603C24.5306 32.0384 24.2082 31.8552 23.9934 31.4887L14.8071 17.4536V31.2625C14.8071 31.478 14.7373 31.6614 14.5977 31.8124C14.4581 31.9631 14.27 32.0386 14.0336 32.0386L11.2617 32.0388ZM1.59242 32.0388C1.37746 32.0388 1.19483 31.9633 1.04451 31.8124C0.894003 31.6614 0.818848 31.478 0.818848 31.2625V10.1772C0.818848 9.94003 0.894202 9.75145 1.04451 9.61125C1.19483 9.47105 1.37766 9.40105 1.59242 9.40105H4.6867C4.92287 9.40105 5.11106 9.47105 5.25066 9.61125C5.39026 9.75145 5.46007 9.94003 5.46007 10.1772V31.2625C5.46007 31.478 5.39026 31.6614 5.25066 31.8124C5.11106 31.9631 4.92287 32.0386 4.6867 32.0386L1.59242 32.0388Z" fill="#FF4D4D"/>
<path d="M0 37.2521C0 37.1469 0.0417846 37.0461 0.116162 36.9717C0.190539 36.8973 0.291416 36.8555 0.396601 36.8555H69.6034C69.7086 36.8555 69.8095 36.8973 69.8838 36.9717C69.9582 37.0461 70 37.1469 70 37.2521V40.5439C70 40.6491 69.9582 40.75 69.8838 40.8243C69.8095 40.8987 69.7086 40.9405 69.6034 40.9405H0.396601C0.291416 40.9405 0.190539 40.8987 0.116162 40.8243C0.0417846 40.75 0 40.6491 0 40.5439V37.2521Z" fill="#FF4D4D"/>
<path d="M0 0.487251C0 0.382066 0.0417846 0.281189 0.116162 0.206812C0.190539 0.132435 0.291416 0.0906506 0.396601 0.0906506H69.6034C69.7086 0.0906506 69.8095 0.132435 69.8838 0.206812C69.9582 0.281189 70 0.382066 70 0.487251V3.77904C70 3.88422 69.9582 3.9851 69.8838 4.05947C69.8095 4.13385 69.7086 4.17564 69.6034 4.17564H0.396601C0.291416 4.17564 0.190539 4.13385 0.116162 4.05947C0.0417846 3.9851 0 3.88422 0 3.77904V0.487251Z" fill="#FF4D4D"/>
</svg>
